Who Framed Roger Rabbit 
http://www.imdb.com/title/tt0096438/

Source  :

Who Framed Roger Rabbit (1988) 720p x264 DTS-DiC


Info    :

ID                               : 1
Format                           : AVC
Format/Info                      : Advanced Video Codec
Format profile                   : Baseline@L2.1
Format settings, CABAC           : No
Format settings, ReFrames        : 3 frames
Codec ID                         : avc1
Codec ID/Info                    : Advanced Video Coding
Duration                         : 1h 39mn
Bit rate mode                    : Variable
Bit rate                         : 400 Kbps
Width                            : 480 pixels
Height                           : 272 pixels
Display aspect ratio             : 16:9
Frame rate mode                  : Constant
Frame rate                       : 25.000 fps
Color space                      : YUV
Chroma subsampling               : 4:2:0
Bit depth                        : 8 bits
Scan type                        : Progressive
Bits/(Pixel*Frame)               : 0.123
Stream size                      : 285 MiB (75%)
Writing library                  : x264 core 79

ID                               : 2
Format                           : AAC
Format/Info                      : Advanced Audio Codec
Format version                   : Version 4
Format profile                   : LC
Format settings, SBR             : No
Codec ID                         : 40
Duration                         : 1h 39mn
Bit rate mode                    : Variable
Bit rate                         : 128 Kbps
Maximum bit rate                 : 156 Kbps
Channel(s)                       : 2 channels
Channel positions                : Front: L R
Sampling rate                    : 48.0 KHz
Stream size                      : 90.8 MiB (24%)
Language                         : English

Screens :  
http://img535.imageshack.us/img535/6673/vlcsnap00001db.png 
http://img805.imageshack.us/img805/9823/vlcsnap00002.png 
http://img823.imageshack.us/img823/4875/vlcsnap00003q.png 
http://img267.imageshack.us/img267/2807/vlcsnap00004y.png 
http://img52.imageshack.us/img52/9884/vlcsnap00005kc.png 
http://img4.imageshack.us/img4/3568/vlcsnap00006i.png 
http://img686.imageshack.us/img686/934/vlcsnap00007q.png


PLEASE LET THE TORRENT SEED AND SHARE IT WITH ALL YOU KNOW!

Let me know what I can do to be your trusted source of Handheld videos. 
http://thepiratebay.org/user/on.off.on/ -OOO